<mxfile host="app.diagrams.net" modified="2023-11-22T07:50:07.960Z" agent="Mozilla/5.0 (Windows NT 10.0; Win64; x64) AppleWebKit/537.36 (KHTML, like Gecko) Chrome/119.0.0.0 Safari/537.36" etag="3oOBFvzcHKfIa8V9--Q4" version="22.1.3" type="device">
  <diagram name="第 1 页" id="Xw8q9SxtOk5_ITbkszXI">
    <mxGraphModel dx="788" dy="475" grid="1" gridSize="10" guides="1" tooltips="1" connect="1" arrows="1" fold="1" page="1" pageScale="1" pageWidth="827" pageHeight="1169" math="0" shadow="0">
      <root>
        <mxCell id="0" />
        <mxCell id="1" parent="0" />
        <mxCell id="ZpjZvFXlTCYLtF_sFGO9-1" value="&lt;font style=&quot;font-size: 24px;&quot;&gt;层次&lt;/font&gt;" style="text;html=1;align=center;verticalAlign=middle;resizable=0;points=[];autosize=1;strokeColor=none;fillColor=none;" vertex="1" parent="1">
          <mxGeometry x="125" y="100" width="70" height="40" as="geometry" />
        </mxCell>
        <mxCell id="ZpjZvFXlTCYLtF_sFGO9-2" value="&lt;font style=&quot;font-size: 24px;&quot;&gt;封装&lt;/font&gt;" style="text;html=1;align=center;verticalAlign=middle;resizable=0;points=[];autosize=1;strokeColor=none;fillColor=none;" vertex="1" parent="1">
          <mxGeometry x="340" y="100" width="70" height="40" as="geometry" />
        </mxCell>
        <mxCell id="ZpjZvFXlTCYLtF_sFGO9-3" value="&lt;font style=&quot;font-size: 24px;&quot;&gt;名称&lt;/font&gt;" style="text;html=1;align=center;verticalAlign=middle;resizable=0;points=[];autosize=1;strokeColor=none;fillColor=none;" vertex="1" parent="1">
          <mxGeometry x="610" y="100" width="70" height="40" as="geometry" />
        </mxCell>
        <mxCell id="ZpjZvFXlTCYLtF_sFGO9-4" value="应用层" style="rounded=0;whiteSpace=wrap;html=1;fillColor=#dae8fc;strokeColor=#6c8ebf;fontSize=14;" vertex="1" parent="1">
          <mxGeometry x="120" y="160" width="80" height="30" as="geometry" />
        </mxCell>
        <mxCell id="ZpjZvFXlTCYLtF_sFGO9-5" value="表示层" style="rounded=0;whiteSpace=wrap;html=1;fillColor=#dae8fc;strokeColor=#6c8ebf;fontSize=14;" vertex="1" parent="1">
          <mxGeometry x="120" y="190" width="80" height="30" as="geometry" />
        </mxCell>
        <mxCell id="ZpjZvFXlTCYLtF_sFGO9-6" value="会话层" style="rounded=0;whiteSpace=wrap;html=1;fillColor=#dae8fc;strokeColor=#6c8ebf;fontSize=14;" vertex="1" parent="1">
          <mxGeometry x="120" y="220" width="80" height="30" as="geometry" />
        </mxCell>
        <mxCell id="ZpjZvFXlTCYLtF_sFGO9-7" value="传输层" style="rounded=0;whiteSpace=wrap;html=1;fillColor=#d5e8d4;strokeColor=#82b366;fontSize=14;" vertex="1" parent="1">
          <mxGeometry x="120" y="250" width="80" height="30" as="geometry" />
        </mxCell>
        <mxCell id="ZpjZvFXlTCYLtF_sFGO9-8" value="网络层" style="rounded=0;whiteSpace=wrap;html=1;fillColor=#ffe6cc;strokeColor=#d79b00;fontSize=14;" vertex="1" parent="1">
          <mxGeometry x="120" y="280" width="80" height="30" as="geometry" />
        </mxCell>
        <mxCell id="ZpjZvFXlTCYLtF_sFGO9-9" value="数据链路层" style="rounded=0;whiteSpace=wrap;html=1;fillColor=#f8cecc;strokeColor=#b85450;fontSize=14;" vertex="1" parent="1">
          <mxGeometry x="120" y="310" width="80" height="30" as="geometry" />
        </mxCell>
        <mxCell id="ZpjZvFXlTCYLtF_sFGO9-10" value="物理层" style="rounded=0;whiteSpace=wrap;html=1;fillColor=#e1d5e7;strokeColor=#9673a6;fontSize=14;" vertex="1" parent="1">
          <mxGeometry x="120" y="340" width="80" height="30" as="geometry" />
        </mxCell>
        <mxCell id="ZpjZvFXlTCYLtF_sFGO9-11" value="" style="shape=curlyBracket;whiteSpace=wrap;html=1;rounded=1;flipH=1;labelPosition=right;verticalLabelPosition=middle;align=left;verticalAlign=middle;" vertex="1" parent="1">
          <mxGeometry x="210" y="160" width="20" height="90" as="geometry" />
        </mxCell>
        <mxCell id="ZpjZvFXlTCYLtF_sFGO9-12" value="数据" style="rounded=0;whiteSpace=wrap;html=1;fillColor=#dae8fc;strokeColor=#6c8ebf;fontSize=14;" vertex="1" parent="1">
          <mxGeometry x="240" y="190" width="140" height="30" as="geometry" />
        </mxCell>
        <mxCell id="ZpjZvFXlTCYLtF_sFGO9-13" value="报文（Message）" style="rounded=0;whiteSpace=wrap;html=1;fillColor=#dae8fc;strokeColor=#6c8ebf;fontSize=14;" vertex="1" parent="1">
          <mxGeometry x="580" y="190" width="128" height="30" as="geometry" />
        </mxCell>
        <mxCell id="ZpjZvFXlTCYLtF_sFGO9-14" value="" style="endArrow=classic;html=1;rounded=0;" edge="1" parent="1">
          <mxGeometry width="50" height="50" relative="1" as="geometry">
            <mxPoint x="210" y="264.75" as="sourcePoint" />
            <mxPoint x="230" y="264.75" as="targetPoint" />
          </mxGeometry>
        </mxCell>
        <mxCell id="ZpjZvFXlTCYLtF_sFGO9-15" value="" style="endArrow=classic;html=1;rounded=0;" edge="1" parent="1">
          <mxGeometry width="50" height="50" relative="1" as="geometry">
            <mxPoint x="210" y="294.75" as="sourcePoint" />
            <mxPoint x="230" y="294.75" as="targetPoint" />
          </mxGeometry>
        </mxCell>
        <mxCell id="ZpjZvFXlTCYLtF_sFGO9-16" value="" style="endArrow=classic;html=1;rounded=0;" edge="1" parent="1">
          <mxGeometry width="50" height="50" relative="1" as="geometry">
            <mxPoint x="210" y="324.75" as="sourcePoint" />
            <mxPoint x="230" y="324.75" as="targetPoint" />
          </mxGeometry>
        </mxCell>
        <mxCell id="ZpjZvFXlTCYLtF_sFGO9-17" value="" style="endArrow=classic;html=1;rounded=0;" edge="1" parent="1">
          <mxGeometry width="50" height="50" relative="1" as="geometry">
            <mxPoint x="210" y="354.75" as="sourcePoint" />
            <mxPoint x="230" y="354.75" as="targetPoint" />
          </mxGeometry>
        </mxCell>
        <mxCell id="ZpjZvFXlTCYLtF_sFGO9-19" value="TCP/UDP头" style="rounded=0;whiteSpace=wrap;html=1;fillColor=#d5e8d4;strokeColor=#82b366;fontSize=14;" vertex="1" parent="1">
          <mxGeometry x="240" y="250" width="90" height="30" as="geometry" />
        </mxCell>
        <mxCell id="ZpjZvFXlTCYLtF_sFGO9-22" value="IP头" style="rounded=0;whiteSpace=wrap;html=1;fillColor=#ffe6cc;strokeColor=#d79b00;fontSize=14;" vertex="1" parent="1">
          <mxGeometry x="240" y="280" width="40" height="30" as="geometry" />
        </mxCell>
        <mxCell id="ZpjZvFXlTCYLtF_sFGO9-23" value="MAC" style="rounded=0;whiteSpace=wrap;html=1;fillColor=#f8cecc;strokeColor=#b85450;fontSize=14;" vertex="1" parent="1">
          <mxGeometry x="240" y="310" width="50" height="30" as="geometry" />
        </mxCell>
        <mxCell id="ZpjZvFXlTCYLtF_sFGO9-24" value="110111000110110" style="rounded=0;whiteSpace=wrap;html=1;fillColor=#e1d5e7;strokeColor=#9673a6;fontSize=14;" vertex="1" parent="1">
          <mxGeometry x="240" y="340" width="120" height="30" as="geometry" />
        </mxCell>
        <mxCell id="ZpjZvFXlTCYLtF_sFGO9-25" value="IP头" style="rounded=0;whiteSpace=wrap;html=1;fillColor=#ffe6cc;strokeColor=#d79b00;fontSize=14;" vertex="1" parent="1">
          <mxGeometry x="290" y="310" width="40" height="30" as="geometry" />
        </mxCell>
        <mxCell id="ZpjZvFXlTCYLtF_sFGO9-26" value="TCP/UDP头" style="rounded=0;whiteSpace=wrap;html=1;fillColor=#d5e8d4;strokeColor=#82b366;fontSize=14;" vertex="1" parent="1">
          <mxGeometry x="330" y="310" width="90" height="30" as="geometry" />
        </mxCell>
        <mxCell id="ZpjZvFXlTCYLtF_sFGO9-27" value="数据" style="rounded=0;whiteSpace=wrap;html=1;fillColor=#dae8fc;strokeColor=#6c8ebf;fontSize=14;" vertex="1" parent="1">
          <mxGeometry x="420" y="310" width="140" height="30" as="geometry" />
        </mxCell>
        <mxCell id="ZpjZvFXlTCYLtF_sFGO9-28" value="TCP/UDP头" style="rounded=0;whiteSpace=wrap;html=1;fillColor=#d5e8d4;strokeColor=#82b366;fontSize=14;" vertex="1" parent="1">
          <mxGeometry x="280" y="280" width="90" height="30" as="geometry" />
        </mxCell>
        <mxCell id="ZpjZvFXlTCYLtF_sFGO9-29" value="数据" style="rounded=0;whiteSpace=wrap;html=1;fillColor=#dae8fc;strokeColor=#6c8ebf;fontSize=14;" vertex="1" parent="1">
          <mxGeometry x="370" y="280" width="140" height="30" as="geometry" />
        </mxCell>
        <mxCell id="ZpjZvFXlTCYLtF_sFGO9-30" value="数据" style="rounded=0;whiteSpace=wrap;html=1;fillColor=#dae8fc;strokeColor=#6c8ebf;fontSize=14;" vertex="1" parent="1">
          <mxGeometry x="330" y="250" width="140" height="30" as="geometry" />
        </mxCell>
        <mxCell id="ZpjZvFXlTCYLtF_sFGO9-31" value="段（Segment）" style="rounded=0;whiteSpace=wrap;html=1;fillColor=#d5e8d4;strokeColor=#82b366;fontSize=14;" vertex="1" parent="1">
          <mxGeometry x="580" y="250" width="130" height="30" as="geometry" />
        </mxCell>
        <mxCell id="ZpjZvFXlTCYLtF_sFGO9-32" value="包（Packet）" style="rounded=0;whiteSpace=wrap;html=1;fillColor=#ffe6cc;strokeColor=#d79b00;fontSize=14;" vertex="1" parent="1">
          <mxGeometry x="580" y="280" width="130" height="30" as="geometry" />
        </mxCell>
        <mxCell id="ZpjZvFXlTCYLtF_sFGO9-33" value="帧（Frame）" style="rounded=0;whiteSpace=wrap;html=1;fillColor=#f8cecc;strokeColor=#b85450;fontSize=14;" vertex="1" parent="1">
          <mxGeometry x="580" y="310" width="130" height="30" as="geometry" />
        </mxCell>
        <mxCell id="ZpjZvFXlTCYLtF_sFGO9-34" value="比特流（Bit Flow）" style="rounded=0;whiteSpace=wrap;html=1;fillColor=#e1d5e7;strokeColor=#9673a6;fontSize=14;" vertex="1" parent="1">
          <mxGeometry x="580" y="340" width="130" height="30" as="geometry" />
        </mxCell>
      </root>
    </mxGraphModel>
  </diagram>
</mxfile>
